<?xml version="1.0" standalone="no"?>
<!DOCTYPE svg PUBLIC "-//W3C//DTD SVG 20010904//EN"
 "http://www.w3.org/TR/2001/REC-SVG-20010904/DTD/svg10.dtd">
<svg version="1.0" xmlns="http://www.w3.org/2000/svg"
 width="512.000000pt" height="512.000000pt" viewBox="0 0 512.000000 512.000000"
 preserveAspectRatio="xMidYMid meet">
<metadata>
Created by potrace 1.14, written by Peter Selinger 2001-2017
</metadata>
<g transform="translate(0.000000,512.000000) scale(0.100000,-0.100000)"
fill="#000000" stroke="none">
<path d="M2453 5105 c-199 -54 -332 -218 -339 -420 -5 -171 86 -331 231 -406
l65 -34 0 -171 0 -171 -87 -12 c-609 -85 -1132 -521 -1336 -1111 -23 -66 -46
-151 -53 -196 -3 -21 -8 -46 -9 -54 -2 -8 -6 -39 -10 -67 -6 -45 -11 -53 -29
-54 -101 -3 -204 -71 -255 -169 -34 -65 -35 -185 -2 -255 39 -80 117 -145 198
-164 28 -7 -5 -9 -122 -10 -270 -2 -390 -43 -525 -180 -126 -128 -182 -268
-176 -439 4 -104 16 -154 61 -247 40 -84 110 -167 183 -218 l52 -38 0 -285 c0
-245 2 -289 16 -317 22 -42 60 -74 97 -81 48 -10 4284 -7 4309 3 36 14 79 59
89 94 5 17 9 157 9 309 l0 277 42 30 c153 106 245 276 254 465 7 175 -49 319
-175 446 -135 137 -257 179 -516 180 l-150 1 54 21 c69 26 139 96 168 165 17
41 21 70 19 125 -2 80 -23 131 -77 193 -37 42 -144 95 -192 95 -34 0 -34 0
-40 53 -25 211 -93 409 -218 635 -79 144 -284 369 -441 484 -209 154 -477 270
-700 303 -24 3 -52 8 -63 10 -11 2 -32 4 -47 4 l-28 1 0 173 1 172 51 25 c189
91 289 321 231 525 -39 134 -150 252 -284 301 -60 21 -191 26 -256 9z"/>
</g>
</svg>
